<svg width="1439" height="1167" viewBox="0 0 1439 1167" fill="none" xmlns="http://www.w3.org/2000/svg">
<path opacity="0.5" d="M307.654 87.1423C191.743 188.184 173.781 379.247 95.2788 520.201C67.9514 569.249 32.6408 613.144 14.2179 667.555C-28.0781 792.098 30.1333 933.371 108.047 1032.29C145.2 1079.48 188.596 1122.71 241.101 1142.6C281.478 1157.89 324.772 1158.53 367.273 1158.93L1111.87 1166.9C1195 1167.77 1287.37 1164.61 1347.14 1097.85C1388.34 1051.89 1405.07 984.755 1419.27 920.678C1436.72 841.942 1452.54 756.435 1425.39 681.444C1394.38 595.644 1315.95 547.022 1267.23 472.987C1188.17 353.038 1189.98 171.614 1089.3 75.8564C1042.29 31.1643 980.27 13.638 919.833 4.87484C805.892 -11.6689 697.964 19.5598 586.071 15.2047C490.425 11.487 387.001 17.9665 307.654 87.1423Z" fill="#E7ECFF"/>
</svg>
